<mxfile host="app.diagrams.net" agent="Mozilla/5.0 (Windows NT 10.0; Win64; x64) AppleWebKit/537.36 (KHTML, like Gecko) Chrome/134.0.0.0 Safari/537.36 Edg/134.0.0.0" version="25.0.1">
  <diagram name="第 1 页" id="4o_lDxEVNhOIDceOlCGF">
    <mxGraphModel dx="730" dy="382" grid="1" gridSize="10" guides="1" tooltips="1" connect="1" arrows="1" fold="1" page="1" pageScale="1" pageWidth="827" pageHeight="1169" math="0" shadow="0">
      <root>
        <mxCell id="0" />
        <mxCell id="1" parent="0" />
        <mxCell id="4sY1oFhWT7aM1cHkjKMV-16" style="edgeStyle=orthogonalEdgeStyle;rounded=0;orthogonalLoop=1;jettySize=auto;html=1;entryX=0;entryY=0.5;entryDx=0;entryDy=0;" edge="1" parent="1" source="4sY1oFhWT7aM1cHkjKMV-18" target="4sY1oFhWT7aM1cHkjKMV-13">
          <mxGeometry relative="1" as="geometry" />
        </mxCell>
        <mxCell id="4sY1oFhWT7aM1cHkjKMV-1" value="" style="rounded=0;whiteSpace=wrap;html=1;fillColor=#dae8fc;strokeColor=#6c8ebf;" vertex="1" parent="1">
          <mxGeometry x="90" y="80" width="120" height="60" as="geometry" />
        </mxCell>
        <mxCell id="4sY1oFhWT7aM1cHkjKMV-2" value="" style="rounded=0;whiteSpace=wrap;html=1;fillColor=#dae8fc;strokeColor=#6c8ebf;" vertex="1" parent="1">
          <mxGeometry x="90" y="150" width="120" height="60" as="geometry" />
        </mxCell>
        <mxCell id="4sY1oFhWT7aM1cHkjKMV-3" value="" style="rounded=0;whiteSpace=wrap;html=1;fillColor=#dae8fc;strokeColor=#6c8ebf;" vertex="1" parent="1">
          <mxGeometry x="90" y="220" width="120" height="60" as="geometry" />
        </mxCell>
        <mxCell id="4sY1oFhWT7aM1cHkjKMV-4" value="" style="rounded=0;whiteSpace=wrap;html=1;fillColor=#dae8fc;strokeColor=#6c8ebf;" vertex="1" parent="1">
          <mxGeometry x="90" y="290" width="120" height="60" as="geometry" />
        </mxCell>
        <mxCell id="4sY1oFhWT7aM1cHkjKMV-5" value="" style="rounded=0;whiteSpace=wrap;html=1;fillColor=#dae8fc;strokeColor=#6c8ebf;" vertex="1" parent="1">
          <mxGeometry x="90" y="360" width="120" height="60" as="geometry" />
        </mxCell>
        <mxCell id="4sY1oFhWT7aM1cHkjKMV-10" style="edgeStyle=orthogonalEdgeStyle;rounded=0;orthogonalLoop=1;jettySize=auto;html=1;entryX=0;entryY=0.5;entryDx=0;entryDy=0;" edge="1" parent="1" source="4sY1oFhWT7aM1cHkjKMV-7" target="4sY1oFhWT7aM1cHkjKMV-9">
          <mxGeometry relative="1" as="geometry" />
        </mxCell>
        <mxCell id="4sY1oFhWT7aM1cHkjKMV-20" style="edgeStyle=orthogonalEdgeStyle;rounded=0;orthogonalLoop=1;jettySize=auto;html=1;entryX=0;entryY=0.5;entryDx=0;entryDy=0;" edge="1" parent="1" source="4sY1oFhWT7aM1cHkjKMV-7" target="4sY1oFhWT7aM1cHkjKMV-19">
          <mxGeometry relative="1" as="geometry">
            <Array as="points">
              <mxPoint x="280" y="390" />
            </Array>
          </mxGeometry>
        </mxCell>
        <mxCell id="4sY1oFhWT7aM1cHkjKMV-7" value="" style="rounded=0;whiteSpace=wrap;html=1;fillColor=#f8cecc;strokeColor=#b85450;" vertex="1" parent="1">
          <mxGeometry x="220" y="220" width="120" height="60" as="geometry" />
        </mxCell>
        <mxCell id="4sY1oFhWT7aM1cHkjKMV-11" style="edgeStyle=orthogonalEdgeStyle;rounded=0;orthogonalLoop=1;jettySize=auto;html=1;entryX=0;entryY=0.5;entryDx=0;entryDy=0;" edge="1" parent="1" source="4sY1oFhWT7aM1cHkjKMV-9" target="4sY1oFhWT7aM1cHkjKMV-12">
          <mxGeometry relative="1" as="geometry">
            <mxPoint x="660" y="250" as="targetPoint" />
          </mxGeometry>
        </mxCell>
        <mxCell id="4sY1oFhWT7aM1cHkjKMV-9" value="Model" style="rounded=0;whiteSpace=wrap;html=1;" vertex="1" parent="1">
          <mxGeometry x="360" y="180" width="120" height="140" as="geometry" />
        </mxCell>
        <mxCell id="4sY1oFhWT7aM1cHkjKMV-21" style="edgeStyle=orthogonalEdgeStyle;rounded=0;orthogonalLoop=1;jettySize=auto;html=1;entryX=0;entryY=0.75;entryDx=0;entryDy=0;" edge="1" parent="1" source="4sY1oFhWT7aM1cHkjKMV-12" target="4sY1oFhWT7aM1cHkjKMV-13">
          <mxGeometry relative="1" as="geometry">
            <mxPoint x="640" y="110" as="targetPoint" />
            <Array as="points">
              <mxPoint x="560" y="125" />
            </Array>
          </mxGeometry>
        </mxCell>
        <mxCell id="4sY1oFhWT7aM1cHkjKMV-23" style="edgeStyle=orthogonalEdgeStyle;rounded=0;orthogonalLoop=1;jettySize=auto;html=1;entryX=0;entryY=0.25;entryDx=0;entryDy=0;exitX=0.5;exitY=1;exitDx=0;exitDy=0;" edge="1" parent="1" source="4sY1oFhWT7aM1cHkjKMV-12" target="4sY1oFhWT7aM1cHkjKMV-22">
          <mxGeometry relative="1" as="geometry" />
        </mxCell>
        <mxCell id="4sY1oFhWT7aM1cHkjKMV-12" value="Segmentation results" style="rounded=0;whiteSpace=wrap;html=1;" vertex="1" parent="1">
          <mxGeometry x="500" y="220" width="120" height="60" as="geometry" />
        </mxCell>
        <mxCell id="4sY1oFhWT7aM1cHkjKMV-25" style="edgeStyle=orthogonalEdgeStyle;rounded=0;orthogonalLoop=1;jettySize=auto;html=1;entryX=1;entryY=0.25;entryDx=0;entryDy=0;exitX=0.5;exitY=1;exitDx=0;exitDy=0;" edge="1" parent="1" source="4sY1oFhWT7aM1cHkjKMV-13" target="4sY1oFhWT7aM1cHkjKMV-12">
          <mxGeometry relative="1" as="geometry" />
        </mxCell>
        <mxCell id="4sY1oFhWT7aM1cHkjKMV-13" value="long term loss" style="rounded=0;whiteSpace=wrap;html=1;fillColor=#dae8fc;strokeColor=#6c8ebf;" vertex="1" parent="1">
          <mxGeometry x="640" y="80" width="120" height="60" as="geometry" />
        </mxCell>
        <mxCell id="4sY1oFhWT7aM1cHkjKMV-14" value="long term&amp;nbsp;" style="text;html=1;align=center;verticalAlign=middle;whiteSpace=wrap;rounded=0;" vertex="1" parent="1">
          <mxGeometry x="90" y="50" width="120" height="30" as="geometry" />
        </mxCell>
        <mxCell id="4sY1oFhWT7aM1cHkjKMV-15" value="short term" style="text;html=1;align=center;verticalAlign=middle;whiteSpace=wrap;rounded=0;" vertex="1" parent="1">
          <mxGeometry x="220" y="190" width="120" height="30" as="geometry" />
        </mxCell>
        <mxCell id="4sY1oFhWT7aM1cHkjKMV-17" value="" style="edgeStyle=orthogonalEdgeStyle;rounded=0;orthogonalLoop=1;jettySize=auto;html=1;entryX=0;entryY=0.5;entryDx=0;entryDy=0;" edge="1" parent="1" source="4sY1oFhWT7aM1cHkjKMV-1" target="4sY1oFhWT7aM1cHkjKMV-18">
          <mxGeometry relative="1" as="geometry">
            <mxPoint x="210" y="110" as="sourcePoint" />
            <mxPoint x="600" y="110" as="targetPoint" />
          </mxGeometry>
        </mxCell>
        <mxCell id="4sY1oFhWT7aM1cHkjKMV-18" value="&lt;div&gt;process to&lt;/div&gt;scene trajectory" style="rounded=0;whiteSpace=wrap;html=1;fillColor=#dae8fc;strokeColor=#6c8ebf;" vertex="1" parent="1">
          <mxGeometry x="360" y="80" width="120" height="60" as="geometry" />
        </mxCell>
        <mxCell id="4sY1oFhWT7aM1cHkjKMV-24" style="edgeStyle=orthogonalEdgeStyle;rounded=0;orthogonalLoop=1;jettySize=auto;html=1;entryX=0;entryY=0.5;entryDx=0;entryDy=0;" edge="1" parent="1" source="4sY1oFhWT7aM1cHkjKMV-19" target="4sY1oFhWT7aM1cHkjKMV-22">
          <mxGeometry relative="1" as="geometry" />
        </mxCell>
        <mxCell id="4sY1oFhWT7aM1cHkjKMV-19" value="process to&amp;nbsp;&lt;div&gt;scene flow&lt;/div&gt;" style="rounded=0;whiteSpace=wrap;html=1;fillColor=#f8cecc;strokeColor=#b85450;" vertex="1" parent="1">
          <mxGeometry x="360" y="360" width="120" height="60" as="geometry" />
        </mxCell>
        <mxCell id="4sY1oFhWT7aM1cHkjKMV-26" style="edgeStyle=orthogonalEdgeStyle;rounded=0;orthogonalLoop=1;jettySize=auto;html=1;entryX=1;entryY=0.75;entryDx=0;entryDy=0;" edge="1" parent="1" source="4sY1oFhWT7aM1cHkjKMV-22" target="4sY1oFhWT7aM1cHkjKMV-12">
          <mxGeometry relative="1" as="geometry">
            <Array as="points">
              <mxPoint x="700" y="265" />
            </Array>
          </mxGeometry>
        </mxCell>
        <mxCell id="4sY1oFhWT7aM1cHkjKMV-22" value="process to&amp;nbsp;&lt;div&gt;scene flow&lt;/div&gt;" style="rounded=0;whiteSpace=wrap;html=1;fillColor=#f8cecc;strokeColor=#b85450;" vertex="1" parent="1">
          <mxGeometry x="640" y="360" width="120" height="60" as="geometry" />
        </mxCell>
        <mxCell id="4sY1oFhWT7aM1cHkjKMV-27" value="(preprocessed)" style="text;html=1;align=center;verticalAlign=middle;whiteSpace=wrap;rounded=0;" vertex="1" parent="1">
          <mxGeometry x="370" y="330" width="60" height="30" as="geometry" />
        </mxCell>
        <mxCell id="4sY1oFhWT7aM1cHkjKMV-29" value="(preprocessed)" style="text;html=1;align=center;verticalAlign=middle;whiteSpace=wrap;rounded=0;" vertex="1" parent="1">
          <mxGeometry x="370" y="50" width="60" height="30" as="geometry" />
        </mxCell>
        <mxCell id="4sY1oFhWT7aM1cHkjKMV-30" value="back propagation" style="text;html=1;align=center;verticalAlign=middle;whiteSpace=wrap;rounded=0;" vertex="1" parent="1">
          <mxGeometry x="630" y="200" width="60" height="30" as="geometry" />
        </mxCell>
      </root>
    </mxGraphModel>
  </diagram>
</mxfile>
